<?xml version="1.0" encoding="UTF-8"?>
<svg height="16px" viewBox="0 0 16 16" width="16px" xmlns="http://www.w3.org/2000/svg">
    <path d="m 4.394531 0.96875 c -0.15625 0 -0.28125 0.136719 -0.28125 0.304688 v 0.550781 c 0 0.148437 -0.054687 0.183593 -0.191406 0.183593 l -2.875 0.019532 c -0.066406 0 -0.109375 0.058594 -0.085937 0.128906 c 0.140624 0.492188 1.476562 2.25 3.050781 2.867188 c 0.128906 0.050781 0.09375 0.085937 0.09375 0.234374 l 0.007812 0.578126 c 0.003907 0.171874 0.125 0.304687 0.28125 0.304687 l 2.078125 0.015625 c 0.132813 0 0.242188 0.117188 0.242188 0.265625 v 5.21875 c 0 0.144531 -0.109375 0.261719 -0.242188 0.261719 h -2.472656 c -0.078125 0 -0.140625 0.070312 -0.140625 0.152344 v 2.601562 c 0 0.085938 0.0625 0.152344 0.140625 0.152344 h 9.007812 c 0.078126 0 0.140626 -0.066406 0.140626 -0.152344 v -2.601562 c 0 -0.082032 -0.0625 -0.152344 -0.140626 -0.152344 h -2.152343 c -0.132813 0 -0.242188 -0.117188 -0.242188 -0.261719 v -5.21875 c 0 -0.148437 0.109375 -0.265625 0.242188 -0.265625 h 3.878906 c 0.15625 0 0.28125 -0.136719 0.28125 -0.304688 v -4.566406 c 0 -0.167968 -0.125 -0.300781 -0.28125 -0.300781 z m 0 0" fill="#77767b"/>
</svg>
