<?xml version="1.0" encoding="UTF-8"?>
<svg height="16px" viewBox="0 0 16 16" width="16px" xmlns="http://www.w3.org/2000/svg" xmlns:xlink="http://www.w3.org/1999/xlink">
    <filter id="a" height="100%" width="100%" x="0%" y="0%">
        <feColorMatrix color-interpolation-filters="sRGB" values="0 0 0 0 1 0 0 0 0 1 0 0 0 0 1 0 0 0 1 0"/>
    </filter>
    <mask id="b">
        <g filter="url(#a)">
            <rect fill-opacity="0.651677" height="19.2" width="19.2" x="-1.6" y="-1.6"/>
        </g>
    </mask>
    <clipPath id="c">
        <rect height="152" width="192"/>
    </clipPath>
    <linearGradient id="d" gradientTransform="matrix(-0.12528 0 0 0.119475 16.028488 -20.11203)" gradientUnits="userSpaceOnUse" x1="63.972458" x2="63.972458" y1="210.371368" y2="305.381439">
        <stop offset="0" stop-color="#6a4a4a"/>
        <stop offset="1" stop-color="#352c2c"/>
    </linearGradient>
    <g mask="url(#b)">
        <g clip-path="url(#c)" transform="matrix(1 0 0 1 -168 -16)">
            <path d="m 59.382812 113.570312 l 12.535157 8.484376 l 12.695312 -8.796876 l 7.773438 -8.800781 l -39.035157 0.628907 z m 0 0" fill="#211e1e" fill-opacity="0.592434"/>
        </g>
    </g>
    <path d="m 8.015625 0.925781 c -3.289063 0 -5.953125 2.34375 -5.953125 5.238281 v 0.125 s 0.050781 8.289063 3.769531 8.8125 l 0.003907 0.007813 h 4.402343 l 0.003907 -0.015625 c 3.4375 -0.550781 3.703124 -7.792969 3.722656 -8.710938 c 0.003906 -0.074218 0.003906 -0.144531 0.003906 -0.21875 c 0 -2.894531 -2.664062 -5.238281 -5.953125 -5.238281 z m -0.097656 2.0625 c 2.75 0 4.128906 1.4375 4.128906 3.558594 c -0.003906 1.707031 0.09375 2.917969 -2.035156 3.390625 c 0 0 -2.042969 3.03125 -2.042969 3.027344 l -2.203125 -2.984375 c -2.152344 -0.460938 -1.894531 -1.621094 -1.902344 -3.347657 c 0 -2.117187 1.304688 -3.644531 4.054688 -3.644531 z m 0 0" fill="url(#d)"/>
</svg>
