<?xml version="1.0" encoding="UTF-8"?>
<svg height="128px" viewBox="0 0 128 128" width="128px" xmlns="http://www.w3.org/2000/svg" xmlns:xlink="http://www.w3.org/1999/xlink">
    <linearGradient id="a" gradientUnits="userSpaceOnUse" x1="63.972458" x2="63.972458" y1="38.371368" y2="133.381439">
        <stop offset="0" stop-color="#4a4c54"/>
        <stop offset="1" stop-color="#24252b"/>
    </linearGradient>
    <radialGradient id="b" cx="64.368996" cy="211.316986" gradientTransform="matrix(1.074627 0 0 0.86928 -4.773261 -141.169233)" gradientUnits="userSpaceOnUse" r="36.970428">
        <stop offset="0" stop-color="#f5c211"/>
        <stop offset="1" stop-color="#e66100"/>
    </radialGradient>
    <path d="m 16.46875 48.964844 s 0.410156 68.789062 29.710938 73.703125 l 0.050781 0.117187 h 35.132812 l 0.027344 -0.058594 c 29.671875 -4.386718 30.085937 -73.761718 30.085937 -73.761718 l -4.449218 10.765625 l -88.332032 -5.378907 z m 0 0" fill="url(#a)"/>
    <path d="m 111.484375 47.90625 c 0 24.199219 -21.277344 43.816406 -47.523437 43.816406 c -26.246094 0 -47.523438 -19.617187 -47.523438 -43.816406 s 21.277344 -43.816406 47.523438 -43.816406 c 26.246093 0 47.523437 19.617187 47.523437 43.816406 z m 0 0" fill="#5e5c64"/>
    <path d="m 103.699219 45.109375 c 0 19.113281 -17.738281 34.605469 -39.625 34.605469 c -21.882813 0 -39.625 -15.492188 -39.625 -34.605469 s 17.742187 -34.609375 39.625 -34.609375 c 21.886719 0 39.625 15.496094 39.625 34.609375 z m 0 0" fill="#34303c"/>
    <path d="m 103.898438 51.132812 c 0 17.75 -17.785157 32.136719 -39.726563 32.136719 c -21.945313 0 -39.730469 -14.386719 -39.730469 -32.136719 s 17.785156 -32.136718 39.730469 -32.136718 c 21.941406 0 39.726563 14.386718 39.726563 32.136718 z m 0 0" fill="url(#b)"/>
</svg>
