<?xml version="1.0" encoding="UTF-8"?>
<svg height="128px" viewBox="0 0 128 128" width="128px" xmlns="http://www.w3.org/2000/svg" xmlns:xlink="http://www.w3.org/1999/xlink">
    <filter id="a" height="100%" width="100%" x="0%" y="0%">
        <feColorMatrix color-interpolation-filters="sRGB" values="0 0 0 0 1 0 0 0 0 1 0 0 0 0 1 0 0 0 1 0"/>
    </filter>
    <linearGradient id="b" gradientUnits="userSpaceOnUse" x1="63.972458" x2="63.972458" y1="38.371368" y2="133.381439">
        <stop offset="0" stop-color="#6a4a4a"/>
        <stop offset="1" stop-color="#352c2c"/>
    </linearGradient>
    <mask id="c">
        <g filter="url(#a)">
            <rect fill-opacity="0.651677" height="153.6" width="153.6" x="-12.8" y="-12.8"/>
        </g>
    </mask>
    <clipPath id="d">
        <rect height="152" width="192"/>
    </clipPath>
    <radialGradient id="e" cx="64.368996" cy="211.316986" gradientTransform="matrix(1.074627 0 0 0.86928 -4.773261 -141.169233)" gradientUnits="userSpaceOnUse" r="36.970428">
        <stop offset="0" stop-color="#f5c211"/>
        <stop offset="1" stop-color="#e66100"/>
    </radialGradient>
    <path d="m 16.46875 48.964844 s 0.410156 68.789062 29.710938 73.703125 l 0.050781 0.117187 h 35.132812 l 0.027344 -0.058594 c 29.671875 -4.386718 30.085937 -73.761718 30.085937 -73.761718 l -4.449218 10.765625 l -88.332032 -5.378907 z m 0 0" fill="url(#b)"/>
    <g mask="url(#c)">
        <g clip-path="url(#d)" transform="matrix(1 0 0 1 -8 -16)">
            <path d="m 59.382812 113.570312 l 12.535157 8.484376 l 12.695312 -8.796876 l 7.773438 -8.800781 l -39.035157 0.628907 z m 0 0" fill="#211e1e" fill-opacity="0.592434"/>
        </g>
    </g>
    <path d="m 63.960938 4.089844 c -26.246094 0 -47.523438 19.617187 -47.523438 43.816406 c 0 20.472656 15.371094 38.214844 37.027344 42.738281 l -0.753906 -0.292969 l 11.125 8.644532 l 10.867187 -8.40625 l 1.222656 -0.347656 c 21.539063 -4.609376 35.5625 -21.953126 35.5625 -42.335938 c -0.003906 -24.199219 -21.28125 -43.816406 -47.527343 -43.816406 z m 0 0" fill="#6e6363"/>
    <path d="m 103.699219 45.109375 c 0 19.113281 -17.738281 34.605469 -39.625 34.605469 c -21.882813 0 -39.625 -15.492188 -39.625 -34.605469 s 17.742187 -34.609375 39.625 -34.609375 c 21.886719 0 39.625 15.496094 39.625 34.609375 z m 0 0" fill="#34303c"/>
    <path d="m 64.171875 18.992188 c -21.945313 0.003906 -39.730469 14.390624 -39.730469 32.140624 c 0.039063 14.300782 11.753906 26.863282 28.746094 30.816407 c 0 0 10.828125 9.863281 10.824219 9.839843 l 10.734375 -9.75 c 17.191406 -3.839843 29.113281 -16.476562 29.152344 -30.90625 c 0.003906 -17.75 -17.785157 -32.140624 -39.726563 -32.140624 z m 0 0" fill="url(#e)"/>
</svg>
