<?xml version="1.0" encoding="UTF-8"?>
<svg height="128px" viewBox="0 0 128 128" width="128px" xmlns="http://www.w3.org/2000/svg" xmlns:xlink="http://www.w3.org/1999/xlink">
    <linearGradient id="a" gradientUnits="userSpaceOnUse" x1="101.197433" x2="101.197433" y1="185.694458" y2="288.21106">
        <stop offset="0.396345" stop-color="#3584e4"/>
        <stop offset="0.507174" stop-color="#7aafeb"/>
        <stop offset="0.618994" stop-color="#3584e4"/>
    </linearGradient>
    <linearGradient id="b" gradientTransform="matrix(0.92101 -0.389538 0.389538 0.92101 0 -172)" gradientUnits="userSpaceOnUse" x1="-15.654152" x2="2.986969" y1="254.610184" y2="254.610184">
        <stop offset="0" stop-color="#9a9996"/>
        <stop offset="0.5" stop-color="#deddda"/>
        <stop offset="1" stop-color="#9a9996"/>
    </linearGradient>
    <path d="m 97.097656 28.355469 v 3.65625 c 0 1.105469 0.898438 2 2 2 h 3.859375 c 1.105469 0 2 0.894531 2 2 v 0.523437 c 0 1.105469 -0.894531 2 -2 2 h -3.859375 c -1.101562 0 -2 0.894532 -2 2 v 1.289063 c 0 1.101562 0.898438 2 2 2 h 13.308594 c 1.105469 0 2 -0.898438 2 -2 v -13.46875 c 0 -1.105469 -0.894531 -2 -2 -2 h -13.308594 c -1.101562 0 -2 0.894531 -2 2 z m 0 0" fill="#67121c"/>
    <path d="m 69.691406 6.996094 l -24.871094 0.300781 c -1.105468 0.011719 -2.898437 0.027344 -3.996093 0.113281 c -15.210938 1.160156 -27.589844 13.363282 -28.585938 28.65625 c -0.074219 1.101563 -0.066406 2.894532 -0.066406 4 v 50.945313 c 0 1.101562 -0.007813 2.894531 0.066406 3.996093 c 0.996094 15.304688 13.371094 27.59375 28.632813 28.671876 c 1.101562 0.078124 2.894531 0.082031 3.996094 0.089843 l 25.398437 0.148438 c 1.105469 0.007812 2.894531 0.019531 4 0.003906 c 10.316406 -0.144531 19.292969 -1.941406 26.558594 -6.023437 c 0.964843 -0.542969 2.476562 -1.503907 3.363281 -2.164063 c 5.753906 -4.292969 9.144531 -10.5 10.195312 -19.097656 c 0.132813 -1.097657 -0.695312 -1.921875 -1.796874 -1.835938 l -11.136719 0.875 c -1.097657 0.089844 -2.109375 1.054688 -2.480469 2.09375 c -0.625 1.757813 -1.714844 3.148438 -3.390625 4.460938 c -0.871094 0.679687 -2.390625 1.636719 -3.382813 2.125 c -4.007812 1.980469 -10.058593 3.394531 -17.835937 3.5625 c -1.101563 0.023437 -2.894531 0.007812 -3.996094 0 l -25.398437 -0.148438 c -1.105469 -0.007812 -2.898438 -0.007812 -3.996094 -0.148437 c -6.714844 -0.878906 -11.816406 -5.949219 -12.671875 -12.617188 c -0.140625 -1.09375 -0.125 -2.890625 -0.125 -3.996094 v -50.941406 c 0 -1.105468 -0.015625 -2.898437 0.125 -3.996094 c 0.855469 -6.664062 5.960937 -11.703124 12.722656 -12.605468 c 1.09375 -0.148438 2.890625 -0.15625 3.992188 -0.167969 l 24.875 -0.300781 c 1.101562 -0.015625 2.894531 -0.039063 3.996093 -0.019532 c 8.125 0.140626 14.246094 1.75 18.3125 3.921876 c 0.972657 0.519531 2.46875 1.515624 3.316407 2.222656 c 0.328125 0.269531 0.628906 0.539062 0.910156 0.816406 c 0.789063 0.769531 2.207031 1.503906 3.3125 1.503906 h 13.09375 c 1.105469 0 1.785156 -0.871094 1.4375 -1.917968 c -1.777344 -5.335938 -5.179687 -10.117188 -9.785156 -13.6875 c -0.875 -0.679688 -2.359375 -1.679688 -3.308594 -2.246094 c -7.273437 -4.347656 -16.542969 -6.507813 -27.480469 -6.621094 c -1.105468 -0.011719 -2.894531 0.011719 -4 0.027344 z m 0 0" fill="#a81a23"/>
    <path d="m 97.097656 26.355469 v 3.65625 c 0 1.105469 0.898438 2 2 2 h 3.859375 c 1.105469 0 2 0.894531 2 2 v 0.523437 c 0 1.105469 -0.894531 2 -2 2 h -3.859375 c -1.101562 0 -2 0.894532 -2 2 v 1.289063 c 0 1.101562 0.898438 2 2 2 h 13.308594 c 1.105469 0 2 -0.898438 2 -2 v -13.46875 c 0 -1.105469 -0.894531 -2 -2 -2 h -13.308594 c -1.101562 0 -2 0.894531 -2 2 z m 0 0" fill="#a51d2d"/>
    <path d="m 69.691406 2.996094 l -24.871094 0.300781 c -1.105468 0.011719 -2.898437 0.027344 -3.996093 0.113281 c -15.210938 1.160156 -27.589844 13.363282 -28.585938 28.65625 c -0.074219 1.101563 -0.066406 2.894532 -0.066406 4 v 50.945313 c 0 1.101562 -0.007813 2.894531 0.066406 3.996093 c 0.996094 15.304688 13.371094 27.59375 28.632813 28.671876 c 1.101562 0.078124 2.894531 0.082031 3.996094 0.089843 l 25.398437 0.148438 c 1.105469 0.007812 2.894531 0.019531 4 0.003906 c 10.316406 -0.144531 19.292969 -1.941406 26.558594 -6.023437 c 0.964843 -0.542969 2.476562 -1.503907 3.363281 -2.164063 c 5.753906 -4.292969 9.144531 -10.5 10.195312 -19.097656 c 0.132813 -1.097657 -0.695312 -1.921875 -1.796874 -1.835938 l -11.136719 0.875 c -1.097657 0.089844 -2.109375 1.054688 -2.480469 2.09375 c -0.625 1.757813 -1.714844 3.148438 -3.390625 4.460938 c -0.871094 0.679687 -2.390625 1.636719 -3.382813 2.125 c -4.007812 1.980469 -10.058593 3.394531 -17.835937 3.5625 c -1.101563 0.023437 -2.894531 0.007812 -3.996094 0 l -25.398437 -0.148438 c -1.105469 -0.007812 -2.898438 -0.007812 -3.996094 -0.148437 c -6.714844 -0.878906 -11.816406 -5.949219 -12.671875 -12.617188 c -0.140625 -1.09375 -0.125 -2.890625 -0.125 -3.996094 v -50.941406 c 0 -1.105468 -0.015625 -2.898437 0.125 -3.996094 c 0.855469 -6.664062 5.960937 -11.703124 12.722656 -12.605468 c 1.09375 -0.148438 2.890625 -0.15625 3.992188 -0.167969 l 24.875 -0.300781 c 1.101562 -0.015625 2.894531 -0.039063 3.996093 -0.019532 c 8.125 0.140626 14.246094 1.75 18.3125 3.921876 c 0.972657 0.519531 2.46875 1.515624 3.316407 2.222656 c 0.328125 0.269531 0.628906 0.539062 0.910156 0.816406 c 0.789063 0.769531 2.207031 1.503906 3.3125 1.503906 h 13.09375 c 1.105469 0 1.785156 -0.871094 1.4375 -1.917968 c -1.777344 -5.335938 -5.179687 -10.117188 -9.785156 -13.6875 c -0.875 -0.679688 -2.359375 -1.679688 -3.308594 -2.246094 c -7.273437 -4.347656 -16.542969 -6.507813 -27.480469 -6.621094 c -1.105468 -0.011719 -2.894531 0.011719 -4 0.027344 z m 0 0" fill="#ed333b"/>
    <path d="m 64.554688 54.277344 h 0.941406 c 0.816406 0 1.476562 0.660156 1.476562 1.472656 v 21.320312 c 0 0.816407 -0.660156 1.476563 -1.476562 1.476563 h -0.941406 c -0.816407 0 -1.476563 -0.660156 -1.476563 -1.476563 v -21.320312 c 0 -0.8125 0.660156 -1.472656 1.476563 -1.472656 z m 0 0" fill="#1a5fb4"/>
    <path d="m 51.523438 237.988281 s 15.558593 -3.144531 29.28125 -2.589843 c 12.570312 0.507812 8.804687 2.621093 26.097656 4.582031 c 19.320312 2.1875 42.625 -6.972657 42.625 -6.972657" fill="none" stroke="url(#a)" stroke-width="16" transform="matrix(1 0 0 1 0 -172)"/>
    <path d="m 71.105469 53.335938 h 0.9375 c 0.816406 0 1.476562 0.664062 1.476562 1.476562 v 21.355469 c 0 0.8125 -0.660156 1.476562 -1.476562 1.476562 h -0.9375 c -0.816407 0 -1.480469 -0.664062 -1.480469 -1.476562 v -21.355469 c 0 -0.8125 0.664062 -1.476562 1.480469 -1.476562 z m 0 0" fill="#1a5fb4"/>
    <path d="m 73.046875 32.816406 l 11.371094 -4.8125 c 1.601562 -0.675781 3.445312 0.074219 4.125 1.675782 l 26.777343 63.3125 c 0.675782 1.601562 -0.070312 3.449218 -1.671874 4.125 l -11.371094 4.808593 c -1.601563 0.675781 -3.449219 -0.070312 -4.125 -1.671875 l -26.777344 -63.3125 c -0.679688 -1.601562 0.070312 -3.449218 1.671875 -4.125 z m 0 0" fill="url(#b)"/>
    <path d="m 64.554688 52.277344 h 0.941406 c 0.816406 0 1.476562 0.660156 1.476562 1.472656 v 21.320312 c 0 0.816407 -0.660156 1.476563 -1.476562 1.476563 h -0.941406 c -0.816407 0 -1.476563 -0.660156 -1.476563 -1.476563 v -21.320312 c 0 -0.8125 0.660156 -1.472656 1.476563 -1.472656 z m 0 0" fill="#3584e4"/>
    <path d="m 71.105469 51.335938 h 0.9375 c 0.816406 0 1.476562 0.664062 1.476562 1.476562 v 21.355469 c 0 0.8125 -0.660156 1.476562 -1.476562 1.476562 h -0.9375 c -0.816407 0 -1.480469 -0.664062 -1.480469 -1.476562 v -21.355469 c 0 -0.8125 0.664062 -1.476562 1.480469 -1.476562 z m 0 0" fill="#3584e4"/>
    <path d="m 39.894531 52.265625 l -2.523437 -3.195313 c -1.546875 -1.960937 -3.972656 -3.023437 -6.464844 -2.828124 l -4.832031 0.378906 c -0.277344 0.023437 -0.527344 -0.160156 -0.585938 -0.433594 c -0.058593 -0.269531 0.089844 -0.539062 0.351563 -0.636719 l 2.132812 -0.789062 c 2.453125 -0.902344 5.109375 -1.082031 7.660156 -0.519531 c 1.847657 0.597656 3.507813 1.675781 4.808594 3.121093 l 5.492188 5.046875" fill="#1c71d8"/>
    <path d="m 17.324219 65.847656 h 2.34375 c 0.714843 0 1.296875 0.578125 1.296875 1.292969 v 3.628906 c 0 0.714844 -0.582032 1.296875 -1.296875 1.296875 h -2.34375 c -0.714844 0 -1.296875 -0.582031 -1.296875 -1.296875 v -3.628906 c 0 -0.714844 0.582031 -1.292969 1.296875 -1.292969 z m 0 0" fill="#b08a07"/>
    <path d="m 17.324219 63.847656 h 2.34375 c 0.714843 0 1.296875 0.578125 1.296875 1.292969 v 3.628906 c 0 0.714844 -0.582032 1.296875 -1.296875 1.296875 h -2.34375 c -0.714844 0 -1.296875 -0.582031 -1.296875 -1.296875 v -3.628906 c 0 -0.714844 0.582031 -1.292969 1.296875 -1.292969 z m 0 0" fill="#f5c211"/>
    <path d="m 20.554688 61.011719 h 14.417968 c 0.816406 0 1.476563 0.660156 1.476563 1.476562 v 8.261719 c 0 0.8125 -0.660157 1.472656 -1.476563 1.472656 h -14.417968 c -0.816407 0 -1.476563 -0.660156 -1.476563 -1.472656 v -8.261719 c 0 -0.816406 0.660156 -1.476562 1.476563 -1.476562 z m 0 0" fill="#134b8e"/>
    <path d="m 20.390625 58.851562 h 14.421875 c 0.8125 0 1.472656 0.660157 1.472656 1.472657 v 8.261719 c 0 0.816406 -0.660156 1.476562 -1.472656 1.476562 h -14.421875 c -0.8125 0 -1.472656 -0.660156 -1.472656 -1.476562 v -8.261719 c 0 -0.8125 0.660156 -1.472657 1.472656 -1.472657 z m 0 0" fill="#1c71d8"/>
    <path d="m 35.507812 55.824219 h 23.15625 c 0.816407 0 1.476563 0.660156 1.476563 1.476562 v 21.246094 c 0 0.816406 -0.660156 1.476563 -1.476563 1.476563 h -23.15625 c -0.8125 0 -1.476562 -0.660157 -1.476562 -1.476563 v -21.246094 c 0 -0.816406 0.664062 -1.476562 1.476562 -1.476562 z m 0 0" fill="#1a5fb4"/>
    <path d="m 39.929688 55.140625 l -2.519532 -4.542969 c -1.554687 -2.800781 -3.96875 -4.347656 -6.472656 -4.144531 l -5.003906 0.398437 c -0.210938 0.019532 -0.402344 -0.195312 -0.4375 -0.496093 c -0.03125 -0.304688 0.097656 -0.59375 0.304687 -0.671875 l 1.582031 -0.609375 c 2.546876 -0.984375 5.207032 -1.222657 7.820313 -0.703125 c 1.855469 0.65625 3.546875 2.042968 4.878906 3.996094 l 5.886719 6.976562" fill="#1a5fb4"/>
    <path d="m 28.390625 46.492188 c -0.328125 0.015624 -0.65625 0.140624 -0.921875 0.378906 l -11.425781 9.128906 l -0.292969 0.078125 c -0.789062 0.210937 -0.738281 0.515625 -0.746094 1.332031 l -0.078125 14.035156 c -0.003906 0.816407 0.65625 1.472657 1.472657 1.472657 l 18.695312 0.070312 c 0.816406 0.003907 1.46875 -0.65625 1.472656 -1.472656 l 0.082032 -14.035156 c 0.003906 -0.816407 -0.65625 -1.46875 -1.472657 -1.472657 l -11.761719 -0.074218 l 7.894532 -5.902344 c 0.605468 -0.546875 0.582031 -1.507812 0.46875 -2.019531 l -0.398438 -0.820313 c -0.710937 -0.894531 -2.5625 -0.71875 -2.988281 -0.699218 z m 0 0" fill="#d0d0d0" fill-opacity="0.575323"/>
    <g fill="#3584e4">
        <path d="m 35.375 51.910156 h 23.289062 c 0.816407 0 1.476563 0.660156 1.476563 1.476563 v 21.160156 c 0 0.816406 -0.660156 1.476563 -1.476563 1.476563 h -23.289062 c -0.816406 0 -1.476562 -0.660157 -1.476562 -1.476563 v -21.160156 c 0 -0.816407 0.660156 -1.476563 1.476562 -1.476563 z m 0 0"/>
        <path d="m 39.894531 52.265625 l -2.523437 -3.195313 c -1.546875 -1.960937 -3.972656 -3.023437 -6.464844 -2.828124 l -4.832031 0.378906 c -0.277344 0.023437 -0.527344 -0.160156 -0.585938 -0.433594 c -0.058593 -0.269531 0.089844 -0.539062 0.351563 -0.636719 l 2.132812 -0.789062 c 2.453125 -0.902344 5.109375 -1.082031 7.660156 -0.519531 c 1.847657 0.597656 3.507813 1.675781 4.808594 3.121093 l 5.492188 5.046875"/>
    </g>
</svg>
